<svg width="175" height="130" viewBox="0 0 175 130" fill="none" xmlns="http://www.w3.org/2000/svg">
<g clip-path="url(#clip0_358_1163)">
<rect width="175" height="130" rx="15" fill="#E3F2AD"/>
<path d="M227.807 41.2435L114.277 123.062C113.074 123.925 111.623 124.375 110.14 124.346C108.658 124.316 107.225 123.808 106.058 122.897C104.892 121.987 104.055 120.724 103.673 119.299C103.292 117.875 103.387 116.365 103.943 114.999L128.228 56.2506L83.4485 28.8334C82.4865 28.2461 81.6858 27.431 81.1179 26.4609C80.55 25.4908 80.2326 24.396 80.1941 23.2742C80.1555 22.1524 80.397 21.0386 80.897 20.0323C81.397 19.0261 82.1399 18.1586 83.0594 17.5076L196.59 -64.3108C197.792 -65.1737 199.244 -65.6243 200.727 -65.5946C202.209 -65.565 203.642 -65.0566 204.808 -64.1464C205.975 -63.2361 206.812 -61.9733 207.193 -60.5485C207.575 -59.1236 207.48 -57.6141 206.923 -56.2477L182.592 2.56059L227.376 29.9528C228.33 30.5412 229.124 31.3542 229.686 32.3199C230.249 33.2856 230.564 34.3743 230.604 35.4897C230.643 36.6051 230.405 37.713 229.912 38.7154C229.418 39.7177 228.684 40.5838 227.774 41.237L227.807 41.2435Z" fill="white" fill-opacity="0.5"/>
</g>
<defs>
<clipPath id="clip0_358_1163">
<rect width="175" height="130" rx="15" fill="white"/>
</clipPath>
</defs>
</svg>
