<svg width="35" height="35" viewBox="0 0 35 35" fill="none" xmlns="http://www.w3.org/2000/svg">
<path d="M32.7313 24.8411L28.6224 22.7661C27.4755 22.1914 26.5109 21.3037 25.8379 20.2034C25.1649 19.1031 24.8105 17.8344 24.8148 16.541V12.2793C24.8148 11.9716 24.6938 11.6765 24.4785 11.459C24.2632 11.2414 23.9712 11.1192 23.6667 11.1192C21.8402 11.1173 20.0891 10.3834 18.7976 9.0785C17.5061 7.77361 16.7797 6.00436 16.7778 4.15897C16.7776 3.94317 16.7178 3.7317 16.6052 3.54833C16.4925 3.36497 16.3315 3.21698 16.1402 3.12102C15.9489 3.02505 15.7349 2.9849 15.5222 3.00509C15.3096 3.02527 15.1067 3.105 14.9364 3.23529L3.87977 11.6993L3.85106 11.7225C3.60098 11.9271 3.39626 12.1826 3.2502 12.4724C3.10414 12.7621 3.01999 13.0796 3.00321 13.4044C2.98643 13.7291 3.03739 14.0537 3.1528 14.3573C3.2682 14.6608 3.44547 14.9365 3.6731 15.1663L19.9926 31.6607C20.0993 31.7684 20.226 31.8538 20.3653 31.912C20.5047 31.9702 20.6541 32.0001 20.8049 32H31.7037C32.3127 32 32.8968 31.7556 33.3274 31.3205C33.7581 30.8854 34 30.2952 34 29.6799V26.9161C34.0014 26.4851 33.8832 26.0622 33.659 25.6955C33.4348 25.3288 33.1134 25.0328 32.7313 24.8411ZM31.7037 29.6799H21.2799L5.2963 13.5307L7.14338 12.1154L12.7105 17.7402C12.9259 17.9582 13.2182 18.0809 13.5232 18.0812C13.8281 18.0814 14.1207 17.9593 14.3365 17.7416C14.5523 17.524 14.6737 17.2286 14.674 16.9205C14.6743 16.6124 14.5534 16.3168 14.338 16.0987L8.99046 10.7002L14.7312 6.30505C15.1663 8.14166 16.1444 9.80096 17.5354 11.0624C18.9264 12.3238 20.6645 13.1275 22.5185 13.3668V16.541C22.5128 18.2656 22.9855 19.9574 23.883 21.4244C24.7805 22.8915 26.0668 24.0751 27.5962 24.8411L31.7037 26.9161V29.6799ZM9.71666 27.3598H4.14815C3.84364 27.3598 3.5516 27.2376 3.33628 27.0201C3.12097 26.8025 3 26.5074 3 26.1998C3 25.8921 3.12097 25.5971 3.33628 25.3795C3.5516 25.162 3.84364 25.0397 4.14815 25.0397H9.71666C10.0212 25.0397 10.3132 25.162 10.5285 25.3795C10.7438 25.5971 10.8648 25.8921 10.8648 26.1998C10.8648 26.5074 10.7438 26.8025 10.5285 27.0201C10.3132 27.2376 10.0212 27.3598 9.71666 27.3598ZM15.4574 30.84C15.4574 31.1476 15.3364 31.4427 15.1211 31.6602C14.9058 31.8778 14.6138 32 14.3093 32H6.44444C6.13994 32 5.8479 31.8778 5.63258 31.6602C5.41726 31.4427 5.2963 31.1476 5.2963 30.84C5.2963 30.5323 5.41726 30.2372 5.63258 30.0197C5.8479 29.8021 6.13994 29.6799 6.44444 29.6799H14.3093C14.6138 29.6799 14.9058 29.8021 15.1211 30.0197C15.3364 30.2372 15.4574 30.5323 15.4574 30.84Z" fill="black"/>
</svg>
