<svg width="28" height="19" viewBox="0 0 28 19" fill="none" xmlns="http://www.w3.org/2000/svg">
<path d="M27.0877 8.25H26.2139V4.58333C26.2139 4.0971 26.0298 3.63079 25.702 3.28697C25.3743 2.94315 24.9298 2.75 24.4663 2.75H22.7187V1.83333C22.7187 1.3471 22.5346 0.880787 22.2068 0.536971C21.8791 0.193154 21.4346 0 20.9711 0H18.3497C17.8862 0 17.4417 0.193154 17.114 0.536971C16.7862 0.880787 16.6021 1.3471 16.6021 1.83333V8.25H11.3594V1.83333C11.3594 1.3471 11.1752 0.880787 10.8475 0.536971C10.5198 0.193154 10.0752 0 9.61176 0H6.99037C6.52688 0 6.08237 0.193154 5.75464 0.536971C5.4269 0.880787 5.24278 1.3471 5.24278 1.83333V2.75H3.49518C3.03169 2.75 2.58719 2.94315 2.25945 3.28697C1.93171 3.63079 1.74759 4.0971 1.74759 4.58333V8.25H0.873796C0.642051 8.25 0.419798 8.34658 0.255929 8.51849C0.0920604 8.69039 0 8.92355 0 9.16667C0 9.40978 0.0920604 9.64294 0.255929 9.81485C0.419798 9.98676 0.642051 10.0833 0.873796 10.0833H1.74759V13.75C1.74759 14.2362 1.93171 14.7025 2.25945 15.0464C2.58719 15.3902 3.03169 15.5833 3.49518 15.5833H5.24278V16.5C5.24278 16.9862 5.4269 17.4525 5.75464 17.7964C6.08237 18.1402 6.52688 18.3333 6.99037 18.3333H9.61176C10.0752 18.3333 10.5198 18.1402 10.8475 17.7964C11.1752 17.4525 11.3594 16.9862 11.3594 16.5V10.0833H16.6021V16.5C16.6021 16.9862 16.7862 17.4525 17.114 17.7964C17.4417 18.1402 17.8862 18.3333 18.3497 18.3333H20.9711C21.4346 18.3333 21.8791 18.1402 22.2068 17.7964C22.5346 17.4525 22.7187 16.9862 22.7187 16.5V15.5833H24.4663C24.9298 15.5833 25.3743 15.3902 25.702 15.0464C26.0298 14.7025 26.2139 14.2362 26.2139 13.75V10.0833H27.0877C27.3194 10.0833 27.5417 9.98676 27.7056 9.81485C27.8694 9.64294 27.9615 9.40978 27.9615 9.16667C27.9615 8.92355 27.8694 8.69039 27.7056 8.51849C27.5417 8.34658 27.3194 8.25 27.0877 8.25ZM3.49518 13.75V4.58333H5.24278V13.75H3.49518ZM9.61176 16.5H6.99037V1.83333H9.61176V16.5ZM20.9711 16.5H18.3497V1.83333H20.9711V14.646C20.9711 14.6529 20.9711 14.6598 20.9711 14.6667C20.9711 14.6735 20.9711 14.6804 20.9711 14.6873V16.5ZM24.4663 13.75H22.7187V4.58333H24.4663V13.75Z" fill="black"/>
</svg>
