<svg width="35" height="35" viewBox="0 0 35 35" fill="none" xmlns="http://www.w3.org/2000/svg">
<path d="M32.9361 8.23325C32.8701 7.95837 32.7502 7.69937 32.5836 7.47127C32.4169 7.24317 32.2067 7.0505 31.9651 6.90446C27.7522 4.35024 22.9222 3 17.9984 3C13.0745 3 8.24456 4.35024 4.0316 6.90446C3.79075 7.05086 3.58106 7.24342 3.41453 7.47111C3.24801 7.69881 3.12791 7.95718 3.06112 8.23144C2.99432 8.50571 2.98214 8.79048 3.02526 9.06946C3.06838 9.34845 3.16597 9.61617 3.31244 9.85732L16.169 30.9662C16.36 31.2818 16.6289 31.5427 16.9498 31.7238C17.2707 31.9049 17.6328 32 18.001 32C18.3693 32 18.7314 31.9049 19.0523 31.7238C19.3732 31.5427 19.6421 31.2818 19.8331 30.9662L32.6897 9.85732C32.8363 9.61659 32.9336 9.34898 32.9759 9.07014C33.0182 8.79129 33.0047 8.50679 32.9361 8.23325ZM9.37243 15.6825C9.72054 15.3537 10.1375 15.1069 10.5929 14.9602C11.0483 14.8134 11.5306 14.7704 12.0047 14.8342C12.4788 14.898 12.9326 15.0671 13.3332 15.3291C13.7339 15.591 14.0711 15.9393 14.3203 16.3485C14.5695 16.7577 14.7244 17.2175 14.7738 17.6944C14.8232 18.1712 14.7657 18.6531 14.6056 19.1049C14.4455 19.5567 14.1868 19.9669 13.8484 20.3057C13.51 20.6446 13.1004 20.9034 12.6495 21.0634L9.37243 15.6825ZM21.1469 24.6686C20.6104 24.1616 20.2641 23.485 20.1662 22.7525C20.0684 22.02 20.2248 21.276 20.6093 20.6453C20.9938 20.0147 21.5829 19.5357 22.278 19.2887C22.973 19.0418 23.7317 19.0419 24.4266 19.289L21.1469 24.6686ZM25.557 17.4301C24.3661 16.8884 23.0187 16.8019 21.7687 17.1871C20.5187 17.5723 19.4524 18.4024 18.7709 19.521C18.0894 20.6396 17.8397 21.9695 18.0689 23.2599C18.2981 24.5503 18.9904 25.712 20.0152 26.5262L17.9984 29.8428L13.7798 22.921C14.4724 22.6082 15.0907 22.1514 15.5936 21.5808C16.0966 21.0102 16.4727 20.339 16.697 19.6116C16.9213 18.8842 16.9887 18.1173 16.8947 17.3618C16.8007 16.6063 16.5474 15.8794 16.1517 15.2295C15.756 14.5796 15.2269 14.0215 14.5995 13.5922C13.9721 13.163 13.2608 12.8723 12.5128 12.7396C11.7648 12.6069 10.9971 12.6351 10.2608 12.8225C9.52452 13.0098 8.8364 13.352 8.24212 13.8262L7.39171 12.429C10.5858 10.4749 14.2555 9.44107 17.9977 9.44107C21.7399 9.44107 25.4096 10.4749 28.6037 12.429L25.557 17.4301ZM29.7219 10.5942C26.1907 8.4357 22.1345 7.29381 17.9984 7.29381C13.8622 7.29381 9.806 8.4357 6.2748 10.5942L5.14182 8.73926C9.02052 6.38988 13.4663 5.14803 17.9984 5.14803C22.5304 5.14803 26.9762 6.38988 30.8549 8.73926L29.7219 10.5942Z" fill="black"/>
</svg>
