<svg width="17" height="9" viewBox="0 0 17 9" fill="none" xmlns="http://www.w3.org/2000/svg">
<path d="M16.7736 1.2809L9.04668 8.78006C8.97491 8.84978 8.8897 8.9051 8.79589 8.94284C8.70209 8.98058 8.60154 9 8.5 9C8.39846 9 8.29791 8.98058 8.20411 8.94284C8.1103 8.9051 8.02508 8.84978 7.95332 8.78006L0.226441 1.2809C0.0814532 1.14018 0 0.949334 0 0.750333C0 0.551332 0.0814532 0.360482 0.226441 0.219767C0.371429 0.0790523 0.568074 0 0.773118 0C0.978161 0 1.17481 0.0790523 1.31979 0.219767L8.5 7.1893L15.6802 0.219767C15.752 0.150092 15.8372 0.0948231 15.931 0.0571154C16.0248 0.0194076 16.1254 0 16.2269 0C16.3284 0 16.4289 0.0194076 16.5227 0.0571154C16.6165 0.0948231 16.7018 0.150092 16.7736 0.219767C16.8454 0.289442 16.9023 0.372158 16.9411 0.463193C16.98 0.554227 17 0.651798 17 0.750333C17 0.848868 16.98 0.946439 16.9411 1.03747C16.9023 1.12851 16.8454 1.21122 16.7736 1.2809Z" fill="white"/>
</svg>
