<svg width="8" height="14" viewBox="0 0 8 14" fill="none" xmlns="http://www.w3.org/2000/svg">
<path d="M1.49625 0.67316L7.32894 6.58195C7.38317 6.63683 7.42619 6.702 7.45554 6.77373C7.48489 6.84546 7.5 6.92235 7.5 7C7.5 7.07765 7.48489 7.15454 7.45554 7.22627C7.42619 7.298 7.38317 7.36317 7.32894 7.41805L1.49625 13.3268C1.38681 13.4377 1.23837 13.5 1.08359 13.5C0.928814 13.5 0.780375 13.4377 0.67093 13.3268C0.561485 13.216 0.5 13.0656 0.5 12.9088C0.5 12.752 0.561485 12.6016 0.67093 12.4907L6.09168 7L0.670929 1.50925C0.616738 1.45436 0.573751 1.38918 0.544423 1.31745C0.515094 1.24572 0.499999 1.16885 0.499999 1.09121C0.499999 1.01357 0.515094 0.936691 0.544423 0.864962C0.573751 0.793234 0.616738 0.728059 0.670929 0.67316C0.725121 0.618262 0.789456 0.574714 0.860261 0.545003C0.931065 0.515292 1.00695 0.499999 1.08359 0.499999C1.16023 0.499999 1.23612 0.515292 1.30692 0.545003C1.37773 0.574714 1.44206 0.618262 1.49625 0.67316Z" fill="#C5C7FF" stroke="#C5C7FF"/>
</svg>
