<svg width="151" height="190" viewBox="0 0 151 190" fill="none" xmlns="http://www.w3.org/2000/svg">
<path d="M147.617 106.839L34.0867 188.658C32.8844 189.521 31.4325 189.971 29.95 189.942C28.4674 189.912 27.0348 189.404 25.8683 188.493C24.7017 187.583 23.8645 186.32 23.483 184.895C23.1015 183.471 23.1964 181.961 23.7534 180.595L48.038 121.847L3.25846 94.4294C2.29647 93.8421 1.49575 93.027 0.92785 92.0569C0.359948 91.0868 0.0425455 89.992 0.00400365 88.8702C-0.0345382 87.7484 0.206985 86.6346 0.706984 85.6283C1.20698 84.6221 1.94989 83.7547 2.86933 83.1036L116.4 1.28516C117.602 0.422304 119.054 -0.0282922 120.536 0.00137788C122.019 0.0310479 123.452 0.539374 124.618 1.44964C125.785 2.35991 126.622 3.62273 127.003 5.04755C127.385 6.47237 127.29 7.98187 126.733 9.34826L102.402 68.1566L147.186 95.5488C148.14 96.1372 148.934 96.9502 149.496 97.9159C150.059 98.8816 150.374 99.9703 150.414 101.086C150.453 102.201 150.215 103.309 149.722 104.311C149.228 105.314 148.494 106.18 147.584 106.833L147.617 106.839Z" fill="white" fill-opacity="0.5"/>
</svg>
