<svg width="14" height="20" viewBox="0 0 14 20" fill="none" xmlns="http://www.w3.org/2000/svg">
<path d="M13.8312 9.79044L4.92103 19.7892C4.82661 19.8947 4.70197 19.9653 4.56593 19.9901C4.42989 20.0149 4.28982 19.9928 4.16687 19.9269C4.04392 19.8611 3.94475 19.7551 3.88433 19.6251C3.82391 19.495 3.80552 19.3479 3.83193 19.2059L4.9982 13.0959L0.413462 11.2928C0.314998 11.2542 0.227192 11.1907 0.157887 11.1079C0.0885818 11.0251 0.039937 10.9256 0.0162984 10.8183C-0.00734031 10.711 -0.00523652 10.5993 0.0224216 10.493C0.0500798 10.3868 0.102431 10.2894 0.174798 10.2096L9.08492 0.210801C9.17934 0.10526 9.30398 0.0347489 9.44002 0.00990681C9.57606 -0.0149353 9.71613 0.00723982 9.83908 0.073086C9.96203 0.138932 10.0612 0.244877 10.1216 0.374932C10.182 0.504987 10.2004 0.652097 10.174 0.794062L9.00457 6.9108L13.5893 8.71141C13.687 8.75024 13.7741 8.8137 13.8429 8.89616C13.9117 8.97862 13.96 9.07755 13.9836 9.18422C14.0072 9.29088 14.0053 9.40198 13.9782 9.50772C13.951 9.61345 13.8994 9.71055 13.828 9.79044H13.8312Z" fill="black"/>
</svg>
