<svg width="35" height="35" viewBox="0 0 35 35" fill="none" xmlns="http://www.w3.org/2000/svg">
<path d="M29.973 16.2299C29.9334 16.0642 29.8531 15.9108 29.7391 15.7832C29.6252 15.6556 29.4811 15.5578 29.3198 15.4985L21.793 12.7063L23.7084 3.23136C23.7517 3.01121 23.7215 2.78309 23.6223 2.58141C23.5231 2.37973 23.3602 2.21544 23.1583 2.11334C22.9564 2.01123 22.7264 1.97684 22.5029 2.01536C22.2795 2.05389 22.0748 2.16323 21.9198 2.32689L7.28706 17.8321C7.16822 17.9559 7.08224 18.107 7.03682 18.2717C6.9914 18.4364 6.98795 18.6097 7.02677 18.7761C7.06559 18.9424 7.14547 19.0967 7.25929 19.2251C7.37311 19.3535 7.51731 19.452 7.67901 19.5118L15.2083 22.304L13.2982 31.7686C13.2549 31.9888 13.2851 32.2169 13.3843 32.4186C13.4835 32.6203 13.6464 32.7846 13.8483 32.8867C14.0502 32.9888 14.2802 33.0232 14.5037 32.9846C14.7271 32.9461 14.9318 32.8368 15.0868 32.6731L29.7195 17.1679C29.8362 17.0441 29.9204 16.8937 29.9646 16.7302C30.0088 16.5666 30.0117 16.3948 29.973 16.2299ZM16.0693 28.612L17.4372 21.844C17.4862 21.604 17.4474 21.3546 17.3277 21.1402C17.2081 20.9258 17.0154 20.7604 16.784 20.6734L9.88045 18.1086L20.936 6.39442L19.5694 13.1624C19.5204 13.4025 19.5592 13.6519 19.6789 13.8663C19.7985 14.0807 19.9912 14.2461 20.2226 14.3331L27.1209 16.8914L16.0693 28.612Z" fill="black"/>
</svg>
