<svg width="24" height="22" viewBox="0 0 24 22" fill="none" xmlns="http://www.w3.org/2000/svg">
<path d="M0 11C0 11.6533 0.596363 12.1867 1.29454 12.1867H10.7054V20.8133C10.7054 21.4533 11.2873 22 12 22C12.7127 22 13.3091 21.4533 13.3091 20.8133V12.1867H22.7054C23.4036 12.1867 24 11.6533 24 11C24 10.3466 23.4036 9.79998 22.7054 9.79998H13.3091V1.18667C13.3091 0.546667 12.7127 0 12 0C11.2873 0 10.7054 0.546667 10.7054 1.18667V9.79998H1.29454C0.596363 9.79998 0 10.3466 0 11Z" fill="black"/>
</svg>
