<svg width="35" height="35" viewBox="0 0 35 35" fill="none" xmlns="http://www.w3.org/2000/svg">
<path d="M23 19C23 19.2652 22.8946 19.5196 22.7071 19.7071C22.5196 19.8946 22.2652 20 22 20H19V23C19 23.2652 18.8946 23.5196 18.7071 23.7071C18.5196 23.8946 18.2652 24 18 24C17.7348 24 17.4804 23.8946 17.2929 23.7071C17.1054 23.5196 17 23.2652 17 23V20H14C13.7348 20 13.4804 19.8946 13.2929 19.7071C13.1054 19.5196 13 19.2652 13 19C13 18.7348 13.1054 18.4804 13.2929 18.2929C13.4804 18.1054 13.7348 18 14 18H17V15C17 14.7348 17.1054 14.4804 17.2929 14.2929C17.4804 14.1054 17.7348 14 18 14C18.2652 14 18.5196 14.1054 18.7071 14.2929C18.8946 14.4804 19 14.7348 19 15V18H22C22.2652 18 22.5196 18.1054 22.7071 18.2929C22.8946 18.4804 23 18.7348 23 19ZM31 12V26C31 26.7956 30.6839 27.5587 30.1213 28.1213C29.5587 28.6839 28.7956 29 28 29H8C7.20435 29 6.44129 28.6839 5.87868 28.1213C5.31607 27.5587 5 26.7956 5 26V12C5 11.2044 5.31607 10.4413 5.87868 9.87868C6.44129 9.31607 7.20435 9 8 9H11.465L12.875 6.89C13.0573 6.61673 13.3041 6.39258 13.5937 6.23735C13.8832 6.08213 14.2065 6.00061 14.535 6H21.465C21.7935 6.00061 22.1168 6.08213 22.4063 6.23735C22.6958 6.39258 22.9427 6.61673 23.125 6.89L24.535 9H28C28.7956 9 29.5587 9.31607 30.1213 9.87868C30.6839 10.4413 31 11.2044 31 12ZM29 12C29 11.7348 28.8946 11.4804 28.7071 11.2929C28.5196 11.1054 28.2652 11 28 11H24C23.8353 11.0001 23.6732 10.9595 23.5279 10.8819C23.3827 10.8043 23.2589 10.692 23.1675 10.555L21.465 8H14.535L12.8325 10.555C12.7411 10.692 12.6173 10.8043 12.4721 10.8819C12.3268 10.9595 12.1647 11.0001 12 11H8C7.73478 11 7.48043 11.1054 7.29289 11.2929C7.10536 11.4804 7 11.7348 7 12V26C7 26.2652 7.10536 26.5196 7.29289 26.7071C7.48043 26.8946 7.73478 27 8 27H28C28.2652 27 28.5196 26.8946 28.7071 26.7071C28.8946 26.5196 29 26.2652 29 26V12Z" fill="white"/>
</svg>
