<svg width="28" height="27" viewBox="0 0 28 27" fill="none" xmlns="http://www.w3.org/2000/svg">
<path d="M27.9416 4.87373C27.88 4.61774 27.7682 4.37653 27.6126 4.1641C27.457 3.95166 27.2608 3.77224 27.0354 3.63623C23.1031 1.25748 18.5949 0 13.9991 0C9.40333 0 4.89515 1.25748 0.962871 3.63623C0.738065 3.77257 0.542348 3.9519 0.386916 4.16395C0.231485 4.37601 0.119389 4.61663 0.0570436 4.87205C-0.00530208 5.12747 -0.0166745 5.39267 0.0235768 5.65249C0.063828 5.91231 0.154913 6.16165 0.291621 6.38623L12.2916 26.045C12.4699 26.3389 12.7209 26.5819 13.0204 26.7505C13.32 26.9191 13.6579 27.0077 14.0016 27.0077C14.3454 27.0077 14.6833 26.9191 14.9828 26.7505C15.2823 26.5819 15.5333 26.3389 15.7116 26.045L27.7116 6.38623C27.8485 6.16203 27.9393 5.91281 27.9788 5.65312C28.0183 5.39343 28.0057 5.12848 27.9416 4.87373ZM5.94787 11.8112C6.27279 11.505 6.66197 11.2752 7.08701 11.1385C7.51205 11.0018 7.96224 10.9618 8.40474 11.0212C8.84724 11.0806 9.2709 11.2381 9.64481 11.4821C10.0187 11.726 10.3335 12.0504 10.5661 12.4315C10.7987 12.8126 10.9433 13.2408 10.9894 13.6849C11.0354 14.129 10.9818 14.5778 10.8324 14.9985C10.683 15.4192 10.4415 15.8013 10.1257 16.1168C9.80981 16.4324 9.4275 16.6735 9.00662 16.8225L5.94787 11.8112ZM16.9379 20.18C16.4371 19.7078 16.1139 19.0777 16.0226 18.3955C15.9312 17.7133 16.0772 17.0204 16.4361 16.4331C16.7949 15.8458 17.3449 15.3997 17.9936 15.1697C18.6423 14.9397 19.3504 14.9398 19.9991 15.17L16.9379 20.18ZM21.0541 13.4387C19.9426 12.9342 18.685 12.8538 17.5182 13.2125C16.3515 13.5712 15.3563 14.3443 14.7202 15.386C14.0841 16.4278 13.851 17.6663 14.065 18.868C14.2789 20.0698 14.9251 21.1517 15.8816 21.91L13.9991 24.9987L10.0616 18.5525C10.7081 18.2612 11.2852 17.8357 11.7546 17.3043C12.2241 16.7729 12.5751 16.1478 12.7845 15.4704C12.9939 14.7929 13.0567 14.0787 12.969 13.3751C12.8812 12.6715 12.6448 11.9946 12.2755 11.3894C11.9061 10.7841 11.4123 10.2644 10.8267 9.86456C10.2411 9.46476 9.5772 9.19408 8.87901 9.07049C8.18082 8.94689 7.46432 8.9732 6.77707 9.14768C6.08983 9.32215 5.44755 9.6408 4.89287 10.0825L4.09912 8.78123C7.08041 6.96139 10.5057 5.99858 13.9985 5.99858C17.4913 5.99858 20.9166 6.96139 23.8979 8.78123L21.0541 13.4387ZM24.9416 7.07248C21.6457 5.06228 17.8597 3.99883 13.9991 3.99883C10.1385 3.99883 6.35256 5.06228 3.05662 7.07248L1.99912 5.34498C5.61941 3.15699 9.76901 2.00046 13.9991 2.00046C18.2292 2.00046 22.3788 3.15699 25.9991 5.34498L24.9416 7.07248Z" fill="black"/>
</svg>
