<svg width="17" height="21" viewBox="0 0 17 21" fill="none" xmlns="http://www.w3.org/2000/svg">
<path d="M9.98557 0.179705C9.89031 0.0999893 9.77741 0.0444942 9.65638 0.0178983C9.53535 -0.00869756 9.40974 -0.00561457 9.29014 0.0268872C9.17054 0.0593891 9.06046 0.120357 8.96918 0.204651C8.87789 0.288946 8.80808 0.394095 8.76562 0.511235L6.64062 6.38447L4.30699 4.10848C4.22862 4.03197 4.13503 3.97305 4.03239 3.93559C3.92975 3.89813 3.82039 3.88299 3.71151 3.89117C3.60263 3.89934 3.49672 3.93065 3.40073 3.98302C3.30475 4.03539 3.22088 4.10765 3.15466 4.19501C1.0625 6.9542 0 9.72992 0 12.4444C0 14.7135 0.895533 16.8896 2.48959 18.4941C4.08365 20.0986 6.24566 21 8.5 21C10.7543 21 12.9163 20.0986 14.5104 18.4941C16.1045 16.8896 17 14.7135 17 12.4444C17 6.66448 12.0941 1.9443 9.98557 0.179705ZM13.8985 13.3524C13.6981 14.479 13.1596 15.5167 12.3556 16.3258C11.5515 17.135 10.5204 17.6767 9.40119 17.8782C9.35876 17.8855 9.31578 17.8891 9.27273 17.8889C9.0789 17.8888 8.89216 17.8154 8.74956 17.6833C8.60696 17.5512 8.5189 17.3699 8.50285 17.1755C8.48681 16.981 8.54394 16.7876 8.66293 16.6336C8.78191 16.4796 8.95406 16.3762 9.14523 16.344C10.7457 16.0727 12.1038 14.7058 12.3752 13.0919C12.4096 12.8884 12.5228 12.7071 12.69 12.5876C12.8572 12.4682 13.0646 12.4205 13.2668 12.4551C13.4689 12.4896 13.6491 12.6036 13.7677 12.7719C13.8864 12.9402 13.9338 13.149 13.8994 13.3524H13.8985Z" fill="black"/>
</svg>
