<svg width="13" height="16" viewBox="0 0 13 16" fill="none" xmlns="http://www.w3.org/2000/svg">
<path d="M7.63602 0.136918C7.56318 0.0761823 7.47684 0.0339003 7.38429 0.0136368C7.29174 -0.00662671 7.19568 -0.00427777 7.10423 0.0204855C7.01277 0.0452488 6.92859 0.0917006 6.85878 0.155925C6.78898 0.220149 6.73559 0.300263 6.70312 0.389513L5.07812 4.86436L3.29358 3.13027C3.23365 3.07198 3.16208 3.02709 3.08359 2.99855C3.0051 2.97001 2.92147 2.95847 2.83821 2.9647C2.75496 2.97093 2.67396 2.99478 2.60056 3.03468C2.52716 3.07459 2.46303 3.12963 2.41239 3.1962C0.8125 5.29844 0 7.41327 0 9.48143C0 11.2103 0.68482 12.8683 1.90381 14.0908C3.12279 15.3132 4.77609 16 6.5 16C8.22391 16 9.87721 15.3132 11.0962 14.0908C12.3152 12.8683 13 11.2103 13 9.48143C13 5.0777 9.24847 1.48137 7.63602 0.136918Z" fill="black"/>
</svg>
