<svg width="21" height="12" viewBox="0 0 21 12" fill="none" xmlns="http://www.w3.org/2000/svg">
<path d="M4.84375 11.6309H14.9609C15.4004 11.6309 15.752 11.2891 15.752 10.8496C15.752 10.4102 15.4004 10.0586 14.9609 10.0586H4.84375C4.4043 10.0586 4.0625 10.4102 4.0625 10.8496C4.0625 11.2891 4.4043 11.6309 4.84375 11.6309Z" fill="white"/>
<path d="M2.8418 6.60156H16.9727C17.4121 6.60156 17.7539 6.25977 17.7539 5.82031C17.7539 5.38086 17.4121 5.0293 16.9727 5.0293H2.8418C2.40234 5.0293 2.05078 5.38086 2.05078 5.82031C2.05078 6.25977 2.40234 6.60156 2.8418 6.60156Z" fill="white"/>
<path d="M0.78125 1.57227H18.9746C19.4141 1.57227 19.7559 1.23047 19.7559 0.791016C19.7559 0.351562 19.4141 0 18.9746 0H0.78125C0.341797 0 0 0.351562 0 0.791016C0 1.23047 0.341797 1.57227 0.78125 1.57227Z" fill="white"/>
</svg>
