<svg width="17" height="9" viewBox="0 0 17 9" fill="none" xmlns="http://www.w3.org/2000/svg">
<path d="M16.7736 7.7191L9.04668 0.21994C8.97491 0.150215 8.8897 0.0949017 8.79589 0.0571627C8.70209 0.0194237 8.60154 1.1253e-07 8.5 1.1253e-07C8.39846 1.1253e-07 8.29791 0.0194237 8.20411 0.0571627C8.1103 0.0949017 8.02508 0.150215 7.95332 0.21994L0.226441 7.7191C0.0814532 7.85982 0 8.05067 0 8.24967C0 8.44867 0.0814532 8.63952 0.226441 8.78023C0.371429 8.92095 0.568074 9 0.773118 9C0.978161 9 1.17481 8.92095 1.31979 8.78023L8.5 1.8107L15.6802 8.78023C15.752 8.84991 15.8372 8.90518 15.931 8.94288C16.0248 8.98059 16.1254 9 16.2269 9C16.3284 9 16.4289 8.98059 16.5227 8.94288C16.6165 8.90518 16.7018 8.84991 16.7736 8.78023C16.8453 8.71056 16.9023 8.62784 16.9411 8.53681C16.98 8.44577 17 8.3482 17 8.24967C17 8.15113 16.98 8.05356 16.9411 7.96253C16.9023 7.87149 16.8453 7.78878 16.7736 7.7191Z" fill="white"/>
</svg>
