<svg width="8" height="14" viewBox="0 0 8 14" fill="none" xmlns="http://www.w3.org/2000/svg">
<path d="M6.50375 0.67316L0.671064 6.58195C0.616833 6.63683 0.573812 6.702 0.544459 6.77373C0.515107 6.84546 0.5 6.92235 0.5 7C0.5 7.07765 0.515107 7.15454 0.544459 7.22627C0.573812 7.298 0.616833 7.36317 0.671064 7.41805L6.50375 13.3268C6.61319 13.4377 6.76163 13.5 6.91641 13.5C7.07119 13.5 7.21963 13.4377 7.32907 13.3268C7.43851 13.216 7.5 13.0656 7.5 12.9088C7.5 12.752 7.43851 12.6016 7.32907 12.4907L1.90832 7L7.32907 1.50925C7.38326 1.45436 7.42625 1.38918 7.45558 1.31745C7.48491 1.24572 7.5 1.16885 7.5 1.09121C7.5 1.01357 7.48491 0.936691 7.45558 0.864962C7.42625 0.793234 7.38326 0.728059 7.32907 0.67316C7.27488 0.618262 7.21054 0.574714 7.13974 0.545003C7.06893 0.515292 6.99305 0.499999 6.91641 0.499999C6.83977 0.499999 6.76388 0.515292 6.69308 0.545003C6.62227 0.574714 6.55794 0.618262 6.50375 0.67316Z" fill="#C5C7FF" stroke="#C5C7FF"/>
</svg>
