<svg width="31" height="31" viewBox="0 0 31 31" fill="none" xmlns="http://www.w3.org/2000/svg">
<circle cx="15.5" cy="15.5" r="15.5" fill="black"/>
<path d="M7.4397 16.12C7.4397 16.5619 7.84025 16.9227 8.3092 16.9227H14.6302V22.7574C14.6302 23.1903 15.021 23.5601 15.4997 23.5601C15.9784 23.5601 16.379 23.1903 16.379 22.7574V16.9227H22.6901C23.1591 16.9227 23.5597 16.5619 23.5597 16.12C23.5597 15.6782 23.1591 15.3084 22.6901 15.3084H16.379V9.48267C16.379 9.0498 15.9784 8.68005 15.4997 8.68005C15.021 8.68005 14.6302 9.0498 14.6302 9.48267V15.3084H8.3092C7.84025 15.3084 7.4397 15.6782 7.4397 16.12Z" fill="white"/>
</svg>
