<svg width="35" height="35" viewBox="0 0 35 35" fill="none" xmlns="http://www.w3.org/2000/svg">
<path d="M19.5099 3.24816C19.381 3.13808 19.2283 3.06144 19.0645 3.02472C18.9008 2.98799 18.7308 2.99225 18.569 3.03713C18.4072 3.08201 18.2583 3.16621 18.1348 3.28261C18.0113 3.39902 17.9168 3.54423 17.8594 3.70599L14.9844 11.8167L11.8271 8.67362C11.7211 8.56796 11.5945 8.48659 11.4556 8.43486C11.3167 8.38314 11.1688 8.36223 11.0215 8.37352C10.8742 8.38481 10.7308 8.42804 10.601 8.50036C10.4711 8.57269 10.3577 8.67246 10.2681 8.79311C7.4375 12.6034 6 16.4366 6 20.1851C6 23.3186 7.2116 26.3238 9.36827 28.5395C11.5249 30.7552 14.45 32 17.5 32C20.55 32 23.4751 30.7552 25.6317 28.5395C27.7884 26.3238 29 23.3186 29 20.1851C29 12.2033 22.3627 5.68499 19.5099 3.24816ZM17.5 29.8518C15.0054 29.849 12.6138 28.8296 10.8498 27.0174C9.08588 25.2051 8.09368 22.748 8.09091 20.1851C8.09091 17.2314 9.14812 14.1716 11.2351 11.0769L14.6812 14.5113C14.8063 14.6361 14.9599 14.7268 15.1279 14.7751C15.2959 14.8234 15.473 14.8277 15.6431 14.7877C15.8131 14.7476 15.9707 14.6645 16.1015 14.5459C16.2323 14.4272 16.3321 14.2769 16.3918 14.1085L19.3021 5.9092C22.232 8.64945 26.9091 13.997 26.9091 20.1851C26.9063 22.748 25.9141 25.2051 24.1502 27.0174C22.3862 28.8296 19.9946 29.849 17.5 29.8518Z" fill="black"/>
</svg>
